<?xml version="1.0" encoding="utf-8"?>
<svg version="1.1" id="Layer_1" xmlns="http://www.w3.org/2000/svg" x="0px" y="0px"
	 viewBox="0 0 512 512" xml:space="preserve">
<style type="text/css">
</style>
<g>
	<path d="M340.5,242.1c7.7-7.7,20.2-7.7,27.8-0.1l0.1,0.1l118.1,118.1c7.7,7.7,7.7,20.1,0,27.8l0,0L368.4,506.2
		c-7.7,7.7-20.2,7.7-27.9,0c-7.7-7.7-7.7-20.2,0-27.9l104.2-104.2L340.5,269.9C332.8,262.3,332.8,249.8,340.5,242.1L340.5,242.1z"/>
	<path d="M19.7,374.1c0-10.9,8.8-19.7,19.7-19.7h413.5c10.9,0,19.7,8.8,19.7,19.7c0,10.9-8.8,19.7-19.7,19.7H39.4
		C28.5,393.8,19.7,385,19.7,374.1z M171.5,5.8c7.7,7.7,7.7,20.1,0,27.8l0,0L67.2,137.9l104.2,104.2c7.7,7.7,7.7,20.2,0,27.9
		c-7.7,7.7-20.2,7.7-27.9,0L25.5,151.8c-7.7-7.7-7.7-20.2,0-27.8l0,0L143.6,5.8C151.3-1.9,163.8-1.9,171.5,5.8L171.5,5.8z"/>
	<path d="M39.4,137.9c0-10.9,8.8-19.7,19.7-19.7h413.5c10.9,0,19.7,8.8,19.7,19.7c0,10.9-8.8,19.7-19.7,19.7H59.1
		C48.2,157.5,39.4,148.7,39.4,137.9z"/>
</g>
</svg>
